<?xml version="1.0" encoding="UTF-8" standalone="no"?>
<svg
   xmlns:dc="http://purl.org/dc/elements/1.1/"
   xmlns:cc="http://creativecommons.org/ns#"
   xmlns:rdf="http://www.w3.org/1999/02/22-rdf-syntax-ns#"
   xmlns:svg="http://www.w3.org/2000/svg"
   xmlns="http://www.w3.org/2000/svg"
   xmlns:sodipodi="http://sodipodi.sourceforge.net/DTD/sodipodi-0.dtd"
   xmlns:inkscape="http://www.inkscape.org/namespaces/inkscape"
   viewBox="0 0 567.26984 821.61316"
   id="svg2"
   version="1.1"
   inkscape:version="0.91 r13725"
   sodipodi:docname="NewLogo.svg"
   inkscape:export-filename="C:\Users\Matthew\Google Drive\BWPS\NewLogo\rect3459.png"
   inkscape:export-xdpi="232.90503"
   inkscape:export-ydpi="232.90503">
  <metadata
     id="metadata34">
    <rdf:RDF>
      <cc:Work
         rdf:about="">
        <dc:format>image/svg+xml</dc:format>
        <dc:type
           rdf:resource="http://purl.org/dc/dcmitype/StillImage" />
        <dc:title></dc:title>
      </cc:Work>
    </rdf:RDF>
  </metadata>
  <defs
     id="defs32" />
  <sodipodi:namedview
     pagecolor="#ffffff"
     bordercolor="#666666"
     borderopacity="1"
     objecttolerance="10"
     gridtolerance="10"
     guidetolerance="10"
     inkscape:pageopacity="0"
     inkscape:pageshadow="2"
     inkscape:window-width="1254"
     inkscape:window-height="787"
     id="namedview30"
     showgrid="false"
     inkscape:zoom="0.40621842"
     inkscape:cx="381.74964"
     inkscape:cy="499.88976"
     inkscape:window-x="428"
     inkscape:window-y="3"
     inkscape:window-maximized="0"
     inkscape:current-layer="svg2" />
  <path
     d="m317.59338,421.24713-14.25098,154.72498 198.49586-50.89638-41.73503-124.18715-142.50985,20.35855z"
     fill="#b4b4b4"
     fill-rule="evenodd"
     stroke="#000"
     stroke-width="5.7622"
     transform="matrix(.86772,0,0,.86772,-83.53733,-60.94444)"
     id="path4" />
  <path
     d="m483.22783,544.91321c-8.91089,58.96619-19.27682,101.87869-59.43907,97.4752-110.25952-12.01947-107.43657-30.1226-92.47996-91.92044 14.65179-60.53837 38.61366-104.18796 79.13653-103.64713 46.24529.61719 81.04271,43.43188 72.7825,98.09237z"
     fill="#fff"
     stroke="#000"
     stroke-linecap="round"
     stroke-linejoin="round"
     stroke-width="5.01328"
     transform="matrix(.98296,0,0,1.01195,-139.10064,-128.60635)"
     id="path6"
     style="fill:#008000" />
  <path
     d="m301.58926,364.96899c-.28232,5.0818 3.2849,11.25644 2.15935,15.11545-.55395,1.89925-6.12869.25017-7.19783,2.15935-2.28985,4.08901-2.98682,10.55857-2.87913,15.83524 .13224,6.47979 1.97706,13.06259 3.59891,19.43415 1.73714,6.82447 2.31118,15.44941 6.47805,20.15394 3.27089,3.69294 12.13023,1.4261 15.83524,5.03848 5.8921,5.7448 8.6374,15.35538 12.9561,23.03307l4.3187,30.23091c-.23992,19.19422 10.31689,36.94888 21.5935,51.10462 8.39747,1.19964 16.07517.23993 24.47264,1.43957 25.43235-7.19783 43.66686-23.75286 61.1816-45.34636 6.23812-16.07516 8.15754-29.99098 7.91761-41.74744 0-5.27841-.91719-10.7907 0-15.83523 .52238-2.87309 2.22958-6.52487 4.3187-7.91762 1.5098-1.00653 4.98796,1.93895 6.47806.71978 3.78831-3.09953 7.63893-8.52112 9.35718-13.67588 4.04002-12.12004 7.20123-25.61166 7.91762-38.14852 .24332-4.25808-2.53668-9.23416-5.03849-12.23632-1.09711-1.31654-5.65096,1.21159-5.75826-.71979l-2.15935-38.8683-84.21467-33.11004-79.89596,37.42874-1.43957,25.9122z"
     fill="#fff"
     fill-rule="evenodd"
     stroke="#000"
     stroke-width="5.7622"
     transform="matrix(.86772,0,0,.86772,-83.53733,-60.94444)"
     id="path8"
     style="fill:#ffd5d5" />
  <path
     d="m298.25276,346.93842c27.82335-44.78881 139.11676-60.05772 167.95804,5.08964 12.55444-41.05641 8.82203,5.42894 43.77088-103.82861-20.69786-67.52253-61.75427-128.93749-123.16923-175.08353-72.27286,47.50328-106.88238,111.2934-125.20508,169.99389 12.89375,37.66332 21.71578,65.14736 36.64539,103.82861z"
     fill="#fff"
     fill-rule="evenodd"
     stroke="#000"
     stroke-linecap="round"
     stroke-linejoin="round"
     stroke-width="5.7622"
     transform="matrix(.86772,0,0,.86772,-83.53733,-60.94444)"
     id="path10"
     style="fill:#008000" />
  <path
     d="m276.87628,287.89862c66.5046-50.55707 163.54702-46.14605 217.83649,7.12549-7.4648,24.76957-17.98339,48.52121-25.44819,73.29078-20.35855-41.73503-124.18716-59.03979-168.97597-6.10756-8.14342-24.09095-15.26891-50.21776-23.41233-74.30871z"
     fill="#b4b4b4"
     fill-rule="evenodd"
     stroke="#000"
     stroke-linecap="round"
     stroke-linejoin="round"
     stroke-width="5.7622"
     transform="matrix(.86772,0,0,.86772,-83.53733,-60.94444)"
     id="path12"
     style="fill:#000080" />
  <path
     d="m317.4245,536.27745c-5.9982,18.95429-8.39747,42.2273-7.19783,58.30246l145.39625-8.6374c11.2766-32.15033 21.11365-74.37762 18.71437-102.92903 8.87733,10.07697 17.15611,21.99101 26.63199,30.2309 1.5608,1.35722 5.18403-2.73359 6.47805-1.43957 3.26461,3.26461 2.73612,11.94199 7.19783,15.11546 29.60804,21.05924 65.23043,36.02847 95.01142,57.58267 13.64595,9.87635 26.80235,22.17017 35.26939,36.70896 28.00199,48.08237 56.56152,98.426 74.13769,151.15452 16.49358,49.48073 18.71437,103.64882 28.07156,155.47323-50.62477,4.3187-71.01863,43.18701-106.52795,64.78051l.71978,21.59354c-153.07395-1.1997-306.14789,1.3547-459.22184.155 4.79856-32.39032 9.59711-68.53448 14.39567-100.92472-28.55141-8.87733-66.69054-9.04248-85.65423-26.63199-14.14635-13.12125 2.17855-30.04576-8.6374-47.5057-15.70631-25.35435 33.61507-65.83205 46.06614-94.29164 9.38236-21.44539 5.52862-51.68282 14.39567-73.41791 10.80703-26.4904 26.57406-54.98902 48.22549-73.41791 29.93305-25.4779 68.1395-47.50571 106.52795-61.90138z"
     fill="#b4b4b4"
     fill-rule="evenodd"
     stroke="#000"
     stroke-width="5.7622"
     transform="matrix(.86772,0,0,.86772,-83.53733,-60.94444)"
     id="path14"
     style="fill:#800000" />
  <path
     d="m335.41908,593.14034c-3.11906,16.79495-5.33814,35.66717-7.91761,52.5442-19.00136,123.60289-20.63379,244.0608-30.95069,367.14376 25.43235.7198 50.86469-.5168 76.29704.203 6.47805-118.76429 4.75648-230.03772 19.43416-352.23131 2.84768-23.56764 6.71798-47.02585 10.07697-70.53878-21.83343,1.67949-45.10644,1.19964-66.93987,2.87913z"
     fill="#fff"
     fill-rule="evenodd"
     stroke="#000"
     stroke-linecap="round"
     stroke-linejoin="round"
     stroke-width="5.7622"
     transform="matrix(.86772,0,0,.86772,-83.53733,-60.94444)"
     id="path16"
     style="fill:#000080" />
  <path
     d="m616.13464,730.61896c4.72377,20.23261 27.7682,31.12592 28.90057,52.86702 3.90022,20.94776 18.15211,38.13319 21.19962,59.39733 3.84413,17.0424 8.37311,35.53651-.42359,51.92105-3.56949,13.16647-8.03895,28.22626-23.37814,31.90769-16.49984,7.34284-34.62406,13.1725-52.81712,12.18725-22.70049-5.97175-22.15132-32.78865-28.39604-50.8427-9.75973-21.5138-7.03476-45.42752-8.5998-68.34685-.94694-18.5026-1.28915-40.05271 7.85492-56.45917 8.06186-16.4632 16.51376-25.06573 29.3585-29.14303 9.48549-1.66749 22.57891-3.17661 26.30108-3.48859z"
     fill="#fff"
     fill-rule="evenodd"
     stroke="#000"
     stroke-width="5.7622"
     transform="matrix(.86772,0,0,.86772,-83.53733,-60.94444)"
     id="path18"
     style="fill:#008000" />
  <path
     style="fill:#803300;fill-rule:evenodd;stroke:#000000;stroke-width:4.99997616"
     d="m 404.31979,344.19229 -2.65625,476.03971 20.33594,-0.004 1.93085,-476.06445 z"
     id="path3429"
     inkscape:connector-curvature="0"
     sodipodi:nodetypes="ccccc" />
  <path
     d="m585.90372,786.04231c10.55683,3.35898 23.99278,1.67949 31.67048-5.03849 1.19964-8.87733 4.56262-18.09622 3.59891-26.63198-.71578-6.33977-8.31004-11.77466-8.6374-17.99459-.39242-7.45596 5.03488-15.23995 6.47805-23.03307 .95611-5.16298-.36367-10.71345.71979-15.83524 1.55575-7.35445 7.65299-15.06951 7.19783-21.5935-.26462-3.7929-4.39154-8.5089-5.75826-12.23631-1.27249-3.47042-.14372-6.14476-2.15936-9.35719-5.66205-9.02389-15.29116-18.19058-24.47263-24.47264-4.49441-3.07513-11.48657-4.89088-16.55502-3.59892-7.16787,1.8271-13.43596,11.51653-20.15394,12.9561-3.35899.71978-6.79127-6.70465-10.07697-6.47805-3.67221.25326-9.25806,4.36679-10.79675,7.91762-1.58037,3.64701.16999,9.35932 1.43957,13.67589 1.1297,3.84098 4.89957,6.93265 5.75826,10.79675 1.06073,4.7733-.85103,10.34969 0,15.11545 .34861,1.95222 3.87778,3.36531 3.59892,5.03849-.44092,2.64552-5.17728,4.91581-5.75827,7.91761-.85857,4.43596.13773,10.11822 1.43957,14.39567 .37766,1.24089 3.30078,1.06616 3.59892,2.15935 .42164,1.54601-1.33143,3.81179-1.43957,5.75827-.13179,2.37222-.7645,5.91145.71979,7.19783 2.11463,1.83268 6.76346,2.51757 10.07696,2.15935 5.56383-.60149 12.1109-6.14951 16.55502-5.03848 3.23357.8084 4.65015,7.03342 6.47805,10.79675 2.25087,4.63415 5.19316,9.4227 5.75827,14.39567 .63453,5.58386-2.2604,11.515-2.15935,17.2748 .13888,7.91609 1.91942,15.83524 2.87913,23.75286z"
     fill="#fff"
     fill-rule="evenodd"
     stroke="#000"
     stroke-width="5.7622"
     transform="matrix(.86772,0,0,.86772,-83.53733,-60.94444)"
     id="path22"
     style="fill:#ffd5d5" />
  <path
     d="m131.72037,873.85589 13.67589,25.9122-2.15935,12.23632 46.78592,51.10463c4.3187,9.59711 5.38385,23.70549 12.9561,28.79133 8.50291,5.71091 26.39206,3.83885 35.98917-3.59891 13.43596-38.38846 24.71257-60.94167 37.42874-95.01142-4.3187-7.91762-7.0393-17.12956-12.9561-23.75285-10.15836-11.3713-23.51293-20.15394-35.26939-30.23091-15.59531.23993-29.99097-.71978-55.42332,7.19784-23.91698,7.44585-34.5496,14.63559-41.02766,27.35177z"
     fill="#fff"
     fill-rule="evenodd"
     stroke="#000"
     stroke-linecap="round"
     stroke-linejoin="round"
     stroke-width="5.7622"
     transform="matrix(.86772,0,0,.86772,-83.53733,-60.94444)"
     id="path24"
     style="fill:#008000" />
  <path
     d="m304.46875,873.84375c-25.91667.47917-23.33136-1.07752-49.24803-.59836-19.89221,12.31081-35.71272,34.80088-39.31809,55.2551 11.52083,6.95834 10.82654,6.79118 22.34737,13.74951 7.44122,4.49573 6.19148,17.15359 12.25,23.03125 10.01663,9.71763 23.57533,17.94059 35.96875,23.75 2.96197,1.38842 7.28888-.55346 10.09375-2.15625 2.23361-1.27635 2.86334-5.22477 5.03125-6.5 1.91087-1.12404 5.50172.78639 7.1875-.71875 5.03221-4.49304 9.41509-11.14306 12.96875-17.28125 1.72474-2.9791 1.25385-7.06962 2.875-10.0625 1.49793-2.7654 4.97081-4.42209 6.46875-7.1875 1.62114-2.99286.83926-7.9223 2.875-10.09375 1.56318-1.66739 7.17547.54382 7.9375-1.4375 1.63724-4.25681-2.02721-12.04739-.71875-17.28125 .85088-3.40353 7.39794-5.67901 7.1875-8.625-.26943-3.77197-4.32452-10.8486-5.75-15.125-1.21374-3.64122.18049-6.47519-2.15625-8.625-3.66145-3.36853-12.56072-2.58823-18.71875-4.3125-5.83837-1.63474-11.21255-5.89364-17.28125-5.78125zm2.625,23.5c2.95817-.33047 6.78795.04251 10.78125,1.25 7.9866,2.41501 16.62463,12.29336 11.57582,12.37512-1.85403.03003-7.33923,2.44611-15.32582.03113s-13.62874-7.13967-12.59375-10.5625c.5175-1.7114 2.60433-2.76328 5.5625-3.09375z"
     fill="#fff"
     fill-rule="evenodd"
     stroke="#000"
     stroke-width="5.7622"
     transform="matrix(.86772,0,0,.86772,-83.53733,-60.94444)"
     id="path26"
     style="fill:#ffd5d5" />
  <path
     d="m547.645,521.51299 53.4412.50896c-.16966,3.05378.60262,6.82702-.50897,9.16135-.58496,1.22841-4.17957.07025-4.58067,1.52689-2.82234,10.24952-6.74921,20.8085-6.61653,31.55575 .03697,2.99477 8.90412,7.79319 8.65238,10.68824-.76619,8.81112-8.31307,17.81373-11.1972,26.97508-9.83997,0-18.662-.50896-28.50197-.50896-3.39309-9.16135-9.58207-18.7647-10.17928-27.48405-.25106-3.66544 9.71989-7.33834 10.17928-11.1972 1.23716-10.39213-2.65517-22.10432-5.08963-31.55575-.44967-1.74577-5.36024.7819-6.10758-.50896-1.11886-1.93257.33931-6.10757.50897-9.16135z"
     fill="#fff"
     fill-rule="evenodd"
     stroke="#000"
     stroke-width="5.7622"
     transform="matrix(.86772,0,0,.86772,-83.53733,-60.94444)"
     id="path28"
     style="fill:#000080" />
  <g
     inkscape:groupmode="layer"
     id="layer1"
     inkscape:label="Layer 1"
     style="display:inline">
    <path
       style="color:#000000;display:inline;overflow:visible;visibility:visible;fill:#1a1a1a;fill-opacity:1;fill-rule:nonzero;stroke:none;stroke-width:22.60000038;marker:none;enable-background:accumulate"
       d="m 428.89578,269.0097 c -14.79028,0 -14.41357,13.59871 -27.42649,13.88222 l -9.77598,0 -1.77745,0 -4.81565,0 -19.77931,0 -3.38956,0 -0.22734,0 c -5.49605,0 -9.92066,3.82485 -9.92066,8.57589 l 0,55.13583 c 0,4.75104 4.42461,8.57589 9.92066,8.57589 l 115.45163,0 c 5.49604,0 9.92066,-3.82485 9.92066,-8.57589 l 0,-55.13583 c 0,-4.75104 -4.42462,-8.57589 -9.92066,-8.57589 l -11.26408,0 C 452.87862,282.60841 453.25536,269.0097 438.46508,269.0097 l -9.5693,0 z"
       id="path3443" />
    <path
       style="color:#000000;display:inline;overflow:visible;visibility:visible;fill:#1a1a1a;fill-opacity:1;fill-rule:nonzero;stroke:none;stroke-width:22.60000038;marker:none;enable-background:accumulate"
       d="m 370.01255,277.83572 c -2.59615,0 -4.69165,1.72952 -4.69165,3.89488 l 19.77931,0 c 0,-2.16536 -2.07484,-3.89488 -4.67098,-3.89488 l -10.41668,0 z"
       id="path3829" />
    <ellipse
       id="path3772"
       style="color:#000000;display:inline;overflow:visible;visibility:visible;fill:#4d4d4d;stroke:#ffffff;stroke-width:3.0745995;stroke-linecap:round;stroke-linejoin:round;stroke-miterlimit:4;stroke-dasharray:none;stroke-opacity:1;marker:none;enable-background:accumulate"
       cx="434.11288"
       cy="320.34787"
       rx="30.398174"
       ry="26.277637" />
    <ellipse
       id="path3775"
       style="color:#000000;display:inline;overflow:visible;visibility:visible;fill:#ffffff;fill-opacity:1;stroke:none;stroke-width:5;marker:none;enable-background:accumulate"
       cx="415.6358"
       cy="306.33038"
       rx="6.510952"
       ry="5.6283789" />
    <path
       style="color:#000000;display:inline;overflow:visible;visibility:visible;fill:#ffffff;fill-opacity:1;fill-rule:nonzero;stroke:none;stroke-width:3.90109897;marker:none;enable-background:accumulate"
       d="m 460.94801,316.93589 c -1.50008,14.10403 -14.47777,25.30807 -30.79537,26.60313 0.71047,0.0453 1.42553,0.0715 2.14947,0.0715 15.89487,0 28.74924,-11.09407 28.74924,-24.83435 0,-0.61705 -0.0524,-1.23458 -0.10334,-1.84024 z"
       id="path3784" />
    <ellipse
       style="color:#000000;display:inline;overflow:visible;visibility:visible;fill:#ffffff;fill-opacity:1;stroke:none;stroke-width:5;marker:none;enable-background:accumulate"
       id="path3792"
       cx="427.65552"
       cy="315.67221"
       rx="2.4971116"
       ry="2.1586227" />
    <rect
       ry="4.1149049"
       y="272.70627"
       x="425.57562"
       height="8.2298098"
       width="17.079985"
       id="rect3797"
       style="color:#000000;display:inline;overflow:visible;visibility:visible;fill:#ffffff;fill-opacity:1;fill-rule:nonzero;stroke:none;stroke-width:5;marker:none;enable-background:accumulate" />
    <rect
       style="fill:#ffffff"
       id="rect3445"
       width="19.038971"
       height="31.550289"
       x="363.80753"
       y="295.04965"
       ry="2.8144364" />
    <rect
       style="fill:#000000"
       id="rect3447"
       width="4.3517647"
       height="3.4814117"
       x="368.70834"
       y="312.59244"
       ry="1.7407058" />
    <rect
       style="fill:#666666"
       id="rect3449"
       width="15.325833"
       height="28.314196"
       x="365.69333"
       y="296.6716"
       ry="1.6179579" />
    <g
       id="g3461"
       transform="translate(0,0.72663367)">
      <rect
         style="fill:#000000"
         id="rect3451"
         width="4.3517647"
         height="3.4814117"
         x="368.47754"
         y="299.20679"
         ry="1.7407058" />
      <rect
         ry="1.7407058"
         y="305.30981"
         x="368.47754"
         height="3.4814117"
         width="4.3517647"
         id="rect3453"
         style="fill:#000000" />
      <rect
         style="fill:#000000"
         id="rect3455"
         width="4.3517647"
         height="3.4814117"
         x="368.47754"
         y="317.51593"
         ry="1.7407058" />
      <rect
         style="fill:#000000"
         id="rect3457"
         width="4.3517647"
         height="3.4814117"
         x="368.47754"
         y="311.4129"
         ry="1.7407058" />
    </g>
  </g>
  <g
     inkscape:groupmode="layer"
     id="layer2"
     inkscape:label="Layer 2"
     style="display:inline" />
</svg>
